#!OML:ASF X:\für Bonn\!DataBase\2005_08_11_Bastian_Final\c3d\Bastian.ASF
:FULLY-SPECIFIED
:DEGREES
46
root 3.57035 16.4076 -1.67908 173.514 -12.4166 -179.821
lowerback 16.0205 -6.39807 -4.66382
upperback 9.74417 -10.8166 0.51476
thorax 2.48649 -6.38362 4.45702
lowerneck -8.24643 -4.02098 -1.36256
upperneck -8.31632 -3.75878 12.7135
head -0.930054 -1.47113 4.36406
rclavicle -2.16278e-013 7.15625e-014
rhumerus -32.1916 25.7472 -94.2493
rradius 116.54
rwrist 8.9679
rhand -19.7388 15.8249
rfingers 7.12502
rthumb 6.59196 -14.0525
lclavicle -2.16278e-013 7.15625e-014
lhumerus -14.3144 -36.1119 98.6428
lradius 114.866
lwrist 51.3877
lhand -0.150335 -15.8706
lfingers 7.12502
lthumb 25.4464 12.4508
rfemur -47.4472 -19.0367 34.3023
rtibia 63.2125
rfoot -202.057 -185.319
rtoes -6.25648
lfemur 17.8923 3.9669 -19.9119
ltibia 25.0182
lfoot -29.7357 -10.6243
ltoes -11.4809
47
root 3.51531 16.3876 -1.76468 173.457 -12.8324 -179.926
lowerback 16.0388 -6.49137 -4.78257
upperback 9.72755 -10.9512 0.5334
thorax 2.50184 -6.45527 4.55539
lowerneck -8.15169 -4.07409 -1.30168
upperneck -8.28058 -3.85134 12.6555
head -0.930273 -1.52595 4.3292
rclavicle -1.75924e-013 7.59357e-014
rhumerus -31.138 26.1314 -93.7209
rradius 117.505
rwrist 8.89345
rhand -20.3036 16.0455
rfingers 7.12502
rthumb 6.04672 -13.8482
lclavicle -1.75924e-013 7.59357e-014
lhumerus -13.161 -36.6071 99.0099
lradius 114.897
lwrist 51.1265
lhand -0.580982 -15.8671
lfingers 7.12502
lthumb 25.0338 12.5125
rfemur -47.6037 -18.6249 34.175
rtibia 62.2128
rfoot -202.412 -185.212
rtoes -4.89858
lfemur 18.6002 3.90001 -20.0551
ltibia 24.3736
lfoot -29.5517 -10.8558
ltoes -11.0302
48
root 3.45999 16.3668 -1.85276 173.388 -13.2717 -180.023
lowerback 16.0818 -6.58222 -4.88908
upperback 9.71452 -11.0844 0.565948
thorax 2.50955 -6.52722 4.66489
lowerneck -8.12164 -4.13846 -1.2122
upperneck -8.24388 -3.96128 12.5669
head -0.919126 -1.5869 4.27614
rclavicle 5.46658e-014 -2.42517e-014
rhumerus -30.0083 26.4599 -93.1275
rradius 118.453
rwrist 8.84111
rhand -20.8359 16.2335
rfingers 7.12502
rthumb 5.53283 -13.6742
lclavicle 5.46658e-014 -2.42517e-014
lhumerus -12.0205 -37.1298 99.4167
lradius 114.921
lwrist 50.8624
lhand -1.05031 -15.785
lfingers 7.12502
lthumb 24.584 12.6565
rfemur -47.714 -18.1294 33.9583
rtibia 61.2179
rfoot -202.791 -185.182
rtoes -3.47313
lfemur 19.3416 3.79381 -20.1945
ltibia 23.7088
lfoot -29.3502 -11.0768
ltoes -10.3171
49
root 3.40296 16.3424 -1.94136 173.335 -13.7027 -180.103
lowerback 16.12 -6.67255 -4.93689
upperback 9.68334 -11.2038 0.602616
thorax 2.4884 -6.58623 4.74821
lowerneck -8.06254 -4.20787 -1.1126
upperneck -8.21262 -4.08197 12.4422
head -0.915337 -1.65589 4.20856
rclavicle 1.18277e-014 -1.78906e-014
rhumerus -28.8469 26.8126 -92.5347
rradius 119.35
rwrist 8.75734
rhand -21.4333 16.4037
rfingers 7.12502
rthumb 4.95602 -13.5184
lclavicle 1.18277e-014 -1.78906e-014
lhumerus -10.9867 -37.6701 99.8777
lradius 114.93
lwrist 50.6235
lhand -1.52751 -15.7831
lfingers 7.12502
lthumb 24.1265 12.7198
rfemur -47.8126 -17.5698 33.6834
rtibia 60.2253
rfoot -203.096 -185.098
rtoes -1.48636
lfemur 20.0757 3.69804 -20.3224
ltibia 23.0418
lfoot -29.1222 -11.2623
ltoes -9.72315
